<?xml version="1.0" encoding="UTF-8" standalone="no"?>
<!DOCTYPE svg PUBLIC "-//W3C//DTD SVG 1.1//EN" "http://www.w3.org/Graphics/SVG/1.1/DTD/svg11.dtd">
<svg width="100%" height="100%" viewBox="0 0 512 512" version="1.1" xmlns="http://www.w3.org/2000/svg" xmlns:xlink="http://www.w3.org/1999/xlink" xml:space="preserve" xmlns:serif="http://www.serif.com/" style="fill-rule:evenodd;clip-rule:evenodd;stroke-linecap:round;stroke-linejoin:round;stroke-miterlimit:1.5;">
    <g id="Chip-Legs" serif:id="Chip Legs">
        <path d="M485.993,61.894L449.383,61.894L449.383,68.693L485.993,68.693L485.993,61.894ZM485.993,72.522L449.374,72.522L449.374,79.321L485.993,79.321L485.993,72.522ZM485.993,83.151L449.374,83.151L449.374,89.95L485.993,89.95L485.993,83.151ZM485.993,93.779L449.374,93.779L449.374,100.578L485.993,100.578L485.993,93.779ZM485.993,104.408L449.374,104.408L449.374,111.207L485.993,111.207L485.993,104.408ZM485.993,115.037L449.374,115.037L449.374,121.836L485.993,121.836L485.993,115.037ZM485.993,125.665L449.374,125.665L449.374,132.464L485.993,132.464L485.993,125.665ZM485.993,136.294L449.374,136.294L449.374,143.093L485.993,143.093L485.993,136.294ZM485.993,146.922L449.374,146.922L449.374,153.721L485.993,153.721L485.993,146.922ZM485.993,157.551L449.374,157.551L449.374,164.35L485.993,164.35L485.993,157.551ZM485.993,168.179L449.374,168.179L449.374,174.978L485.993,174.978L485.993,168.179ZM485.993,178.808L449.374,178.808L449.374,185.607L485.993,185.607L485.993,178.808ZM485.993,189.437L449.374,189.437L449.374,196.236L485.993,196.236L485.993,189.437ZM485.993,200.065L449.374,200.065L449.374,206.864L485.993,206.864L485.993,200.065ZM485.993,210.694L449.374,210.694L449.374,217.493L485.993,217.493L485.993,210.694ZM485.993,221.322L449.374,221.322L449.374,228.121L485.993,228.121L485.993,221.322ZM485.993,231.951L449.374,231.951L449.374,238.75L485.993,238.75L485.993,231.951ZM485.993,242.579L449.374,242.579L449.374,249.378L485.993,249.378L485.993,242.579ZM485.993,253.208L449.374,253.208L449.374,260.007L485.993,260.007L485.993,253.208ZM485.993,263.837L449.374,263.837L449.374,270.636L485.993,270.636L485.993,263.837ZM485.993,274.465L449.374,274.465L449.374,281.264L485.993,281.264L485.993,274.465ZM485.993,285.094L449.374,285.094L449.374,291.893L485.993,291.893L485.993,285.094ZM485.993,295.722L449.374,295.722L449.374,302.521L485.993,302.521L485.993,295.722ZM485.993,306.351L449.374,306.351L449.374,313.15L485.993,313.15L485.993,306.351ZM485.993,316.979L449.374,316.979L449.374,323.778L485.993,323.778L485.993,316.979ZM485.993,327.608L449.374,327.608L449.374,334.407L485.993,334.407L485.993,327.608ZM485.993,338.237L449.374,338.237L449.374,345.036L485.993,345.036L485.993,338.237ZM485.993,348.865L449.374,348.865L449.374,355.664L485.993,355.664L485.993,348.865ZM485.993,359.494L449.374,359.494L449.374,366.293L485.993,366.293L485.993,359.494ZM485.993,370.122L449.374,370.122L449.374,376.921L485.993,376.921L485.993,370.122ZM485.993,380.751L449.374,380.751L449.374,387.55L485.993,387.55L485.993,380.751ZM485.993,391.379L449.374,391.379L449.374,398.178L485.993,398.178L485.993,391.379ZM485.993,402.008L449.374,402.008L449.374,408.807L485.993,408.807L485.993,402.008ZM485.993,412.637L449.374,412.637L449.374,419.436L485.993,419.436L485.993,412.637ZM485.993,423.265L449.374,423.265L449.374,430.064L485.993,430.064L485.993,423.265ZM485.993,433.894L449.374,433.894L449.374,440.693L485.993,440.693L485.993,433.894Z" style="fill:#9daaaa;"/>
        <path d="M54.993,61.894L18.383,61.894L18.383,68.693L54.993,68.693L54.993,61.894ZM54.993,72.522L18.374,72.522L18.374,79.321L54.993,79.321L54.993,72.522ZM54.993,83.151L18.374,83.151L18.374,89.95L54.993,89.95L54.993,83.151ZM54.993,93.779L18.374,93.779L18.374,100.578L54.993,100.578L54.993,93.779ZM54.993,104.408L18.374,104.408L18.374,111.207L54.993,111.207L54.993,104.408ZM54.993,115.037L18.374,115.037L18.374,121.836L54.993,121.836L54.993,115.037ZM54.993,125.665L18.374,125.665L18.374,132.464L54.993,132.464L54.993,125.665ZM54.993,136.294L18.374,136.294L18.374,143.093L54.993,143.093L54.993,136.294ZM54.993,146.922L18.374,146.922L18.374,153.721L54.993,153.721L54.993,146.922ZM54.993,157.551L18.374,157.551L18.374,164.35L54.993,164.35L54.993,157.551ZM54.993,168.179L18.374,168.179L18.374,174.978L54.993,174.978L54.993,168.179ZM54.993,178.808L18.374,178.808L18.374,185.607L54.993,185.607L54.993,178.808ZM54.993,189.437L18.374,189.437L18.374,196.236L54.993,196.236L54.993,189.437ZM54.993,200.065L18.374,200.065L18.374,206.864L54.993,206.864L54.993,200.065ZM54.993,210.694L18.374,210.694L18.374,217.493L54.993,217.493L54.993,210.694ZM54.993,221.322L18.374,221.322L18.374,228.121L54.993,228.121L54.993,221.322ZM54.993,231.951L18.374,231.951L18.374,238.75L54.993,238.75L54.993,231.951ZM54.993,242.579L18.374,242.579L18.374,249.378L54.993,249.378L54.993,242.579ZM54.993,253.208L18.374,253.208L18.374,260.007L54.993,260.007L54.993,253.208ZM54.993,263.837L18.374,263.837L18.374,270.636L54.993,270.636L54.993,263.837ZM54.993,274.465L18.374,274.465L18.374,281.264L54.993,281.264L54.993,274.465ZM54.993,285.094L18.374,285.094L18.374,291.893L54.993,291.893L54.993,285.094ZM54.993,295.722L18.374,295.722L18.374,302.521L54.993,302.521L54.993,295.722ZM54.993,306.351L18.374,306.351L18.374,313.15L54.993,313.15L54.993,306.351ZM54.993,316.979L18.374,316.979L18.374,323.778L54.993,323.778L54.993,316.979ZM54.993,327.608L18.374,327.608L18.374,334.407L54.993,334.407L54.993,327.608ZM54.993,338.237L18.374,338.237L18.374,345.036L54.993,345.036L54.993,338.237ZM54.993,348.865L18.374,348.865L18.374,355.664L54.993,355.664L54.993,348.865ZM54.993,359.494L18.374,359.494L18.374,366.293L54.993,366.293L54.993,359.494ZM54.993,370.122L18.374,370.122L18.374,376.921L54.993,376.921L54.993,370.122ZM54.993,380.751L18.374,380.751L18.374,387.55L54.993,387.55L54.993,380.751ZM54.993,391.379L18.374,391.379L18.374,398.178L54.993,398.178L54.993,391.379ZM54.993,402.008L18.374,402.008L18.374,408.807L54.993,408.807L54.993,402.008ZM54.993,412.637L18.374,412.637L18.374,419.436L54.993,419.436L54.993,412.637ZM54.993,423.265L18.374,423.265L18.374,430.064L54.993,430.064L54.993,423.265ZM54.993,433.894L18.374,433.894L18.374,440.693L54.993,440.693L54.993,433.894Z" style="fill:#9daaaa;"/>
        <path d="M441.583,485.103L441.583,448.493L434.784,448.493L434.784,485.103L441.583,485.103ZM430.955,485.103L430.955,448.483L424.156,448.483L424.156,485.103L430.955,485.103ZM420.326,485.103L420.326,448.483L413.527,448.483L413.527,485.103L420.326,485.103ZM409.697,485.103L409.697,448.483L402.898,448.483L402.898,485.103L409.697,485.103ZM399.069,485.103L399.069,448.483L392.27,448.483L392.27,485.103L399.069,485.103ZM388.44,485.103L388.44,448.483L381.641,448.483L381.641,485.103L388.44,485.103ZM377.812,485.103L377.812,448.483L371.013,448.483L371.013,485.103L377.812,485.103ZM367.183,485.103L367.183,448.483L360.384,448.483L360.384,485.103L367.183,485.103ZM356.555,485.103L356.555,448.483L349.756,448.483L349.756,485.103L356.555,485.103ZM345.926,485.103L345.926,448.483L339.127,448.483L339.127,485.103L345.926,485.103ZM335.297,485.103L335.297,448.483L328.498,448.483L328.498,485.103L335.297,485.103ZM324.669,485.103L324.669,448.483L317.87,448.483L317.87,485.103L324.669,485.103ZM314.04,485.103L314.04,448.483L307.241,448.483L307.241,485.103L314.04,485.103ZM303.412,485.103L303.412,448.483L296.613,448.483L296.613,485.103L303.412,485.103ZM292.783,485.103L292.783,448.483L285.984,448.483L285.984,485.103L292.783,485.103ZM282.155,485.103L282.155,448.483L275.356,448.483L275.356,485.103L282.155,485.103ZM271.526,485.103L271.526,448.483L264.727,448.483L264.727,485.103L271.526,485.103ZM260.897,485.103L260.897,448.483L254.098,448.483L254.098,485.103L260.897,485.103ZM250.269,485.103L250.269,448.483L243.47,448.483L243.47,485.103L250.269,485.103ZM239.64,485.103L239.64,448.483L232.841,448.483L232.841,485.103L239.64,485.103ZM229.012,485.103L229.012,448.483L222.213,448.483L222.213,485.103L229.012,485.103ZM218.383,485.103L218.383,448.483L211.584,448.483L211.584,485.103L218.383,485.103ZM207.755,485.103L207.755,448.483L200.956,448.483L200.956,485.103L207.755,485.103ZM197.126,485.103L197.126,448.483L190.327,448.483L190.327,485.103L197.126,485.103ZM186.497,485.103L186.497,448.483L179.698,448.483L179.698,485.103L186.497,485.103ZM175.869,485.103L175.869,448.483L169.07,448.483L169.07,485.103L175.869,485.103ZM165.24,485.103L165.24,448.483L158.441,448.483L158.441,485.103L165.24,485.103ZM154.612,485.103L154.612,448.483L147.813,448.483L147.813,485.103L154.612,485.103ZM143.983,485.103L143.983,448.483L137.184,448.483L137.184,485.103L143.983,485.103ZM133.355,485.103L133.355,448.483L126.556,448.483L126.556,485.103L133.355,485.103ZM122.726,485.103L122.726,448.483L115.927,448.483L115.927,485.103L122.726,485.103ZM112.097,485.103L112.097,448.483L105.298,448.483L105.298,485.103L112.097,485.103ZM101.469,485.103L101.469,448.483L94.67,448.483L94.67,485.103L101.469,485.103ZM90.84,485.103L90.84,448.483L84.041,448.483L84.041,485.103L90.84,485.103ZM80.212,485.103L80.212,448.483L73.413,448.483L73.413,485.103L80.212,485.103ZM69.583,485.103L69.583,448.483L62.784,448.483L62.784,485.103L69.583,485.103Z" style="fill:#9daaaa;"/>
        <path d="M441.583,54.103L441.583,17.493L434.784,17.493L434.784,54.103L441.583,54.103ZM430.955,54.103L430.955,17.483L424.156,17.483L424.156,54.103L430.955,54.103ZM420.326,54.103L420.326,17.483L413.527,17.483L413.527,54.103L420.326,54.103ZM409.697,54.103L409.697,17.483L402.898,17.483L402.898,54.103L409.697,54.103ZM399.069,54.103L399.069,17.483L392.27,17.483L392.27,54.103L399.069,54.103ZM388.44,54.103L388.44,17.483L381.641,17.483L381.641,54.103L388.44,54.103ZM377.812,54.103L377.812,17.483L371.013,17.483L371.013,54.103L377.812,54.103ZM367.183,54.103L367.183,17.483L360.384,17.483L360.384,54.103L367.183,54.103ZM356.555,54.103L356.555,17.483L349.756,17.483L349.756,54.103L356.555,54.103ZM345.926,54.103L345.926,17.483L339.127,17.483L339.127,54.103L345.926,54.103ZM335.297,54.103L335.297,17.483L328.498,17.483L328.498,54.103L335.297,54.103ZM324.669,54.103L324.669,17.483L317.87,17.483L317.87,54.103L324.669,54.103ZM314.04,54.103L314.04,17.483L307.241,17.483L307.241,54.103L314.04,54.103ZM303.412,54.103L303.412,17.483L296.613,17.483L296.613,54.103L303.412,54.103ZM292.783,54.103L292.783,17.483L285.984,17.483L285.984,54.103L292.783,54.103ZM282.155,54.103L282.155,17.483L275.356,17.483L275.356,54.103L282.155,54.103ZM271.526,54.103L271.526,17.483L264.727,17.483L264.727,54.103L271.526,54.103ZM260.897,54.103L260.897,17.483L254.098,17.483L254.098,54.103L260.897,54.103ZM250.269,54.103L250.269,17.483L243.47,17.483L243.47,54.103L250.269,54.103ZM239.64,54.103L239.64,17.483L232.841,17.483L232.841,54.103L239.64,54.103ZM229.012,54.103L229.012,17.483L222.213,17.483L222.213,54.103L229.012,54.103ZM218.383,54.103L218.383,17.483L211.584,17.483L211.584,54.103L218.383,54.103ZM207.755,54.103L207.755,17.483L200.956,17.483L200.956,54.103L207.755,54.103ZM197.126,54.103L197.126,17.483L190.327,17.483L190.327,54.103L197.126,54.103ZM186.497,54.103L186.497,17.483L179.698,17.483L179.698,54.103L186.497,54.103ZM175.869,54.103L175.869,17.483L169.07,17.483L169.07,54.103L175.869,54.103ZM165.24,54.103L165.24,17.483L158.441,17.483L158.441,54.103L165.24,54.103ZM154.612,54.103L154.612,17.483L147.813,17.483L147.813,54.103L154.612,54.103ZM143.983,54.103L143.983,17.483L137.184,17.483L137.184,54.103L143.983,54.103ZM133.355,54.103L133.355,17.483L126.556,17.483L126.556,54.103L133.355,54.103ZM122.726,54.103L122.726,17.483L115.927,17.483L115.927,54.103L122.726,54.103ZM112.097,54.103L112.097,17.483L105.298,17.483L105.298,54.103L112.097,54.103ZM101.469,54.103L101.469,17.483L94.67,17.483L94.67,54.103L101.469,54.103ZM90.84,54.103L90.84,17.483L84.041,17.483L84.041,54.103L90.84,54.103ZM80.212,54.103L80.212,17.483L73.413,17.483L73.413,54.103L80.212,54.103ZM69.583,54.103L69.583,17.483L62.784,17.483L62.784,54.103L69.583,54.103Z" style="fill:#9daaaa;"/>
    </g>
    <path id="Chip-body" serif:id="Chip body" d="M60,39.953L50.219,39.953L40.02,50.151L40.02,440.384L62.057,462.421L449.218,462.421L461.191,450.448L461.191,59.992L441.368,40.169L60,39.953Z" style="fill:#0d0b0b;stroke:#000;stroke-width:1px;"/>
    <g>
        <g>
            <path d="M138.264,223.104L87.263,223.104L110.88,158.406L123.242,158.406L103.903,211.41L154.609,211.41C155.221,211.136 155.813,210.809 156.384,210.429C158.436,209.063 159.846,207.271 160.615,205.052C162.014,201.381 160.695,198.551 156.656,196.559L148.54,192.547C145.344,190.983 143.254,188.728 142.271,185.783C141.287,182.839 141.513,179.432 142.948,175.562C144.841,170.413 148.337,166.095 153.437,162.61C158.537,159.125 163.901,157.382 169.529,157.382C175.387,157.382 179.547,159.175 182.01,162.759C184.474,166.344 184.699,170.967 182.686,176.629L170.368,176.629C171.151,174.325 171.09,172.49 170.184,171.124C169.279,169.758 167.663,169.075 165.337,169.075C163.069,169.075 161.027,169.616 159.212,170.697C157.398,171.778 156.152,173.172 155.474,174.879C154.353,177.952 155.736,180.427 159.623,182.305L167.339,186.146C170.716,187.825 172.927,190.243 173.973,193.401C175.019,196.559 174.802,200.115 173.323,204.07C171.272,209.789 167.557,214.568 162.179,218.409C156.8,222.25 151.11,224.171 145.109,224.171C142.504,224.171 140.223,223.815 138.264,223.104Z" style="fill:#acacac;fill-rule:nonzero;"/>
            <path d="M138.264,223.104L87.263,223.104L110.88,158.406L123.242,158.406L103.903,211.41L154.609,211.41C155.221,211.136 155.813,210.809 156.384,210.429C158.436,209.063 159.846,207.271 160.615,205.052C162.014,201.381 160.695,198.551 156.656,196.559L148.54,192.547C145.344,190.983 143.254,188.728 142.271,185.783C141.287,182.839 141.513,179.432 142.948,175.562C144.841,170.413 148.337,166.095 153.437,162.61C158.537,159.125 163.901,157.382 169.529,157.382C175.387,157.382 179.547,159.175 182.01,162.759C184.474,166.344 184.699,170.967 182.686,176.629L170.368,176.629C171.151,174.325 171.09,172.49 170.184,171.124C169.279,169.758 167.663,169.075 165.337,169.075C163.069,169.075 161.027,169.616 159.212,170.697C157.398,171.778 156.152,173.172 155.474,174.879C154.353,177.952 155.736,180.427 159.623,182.305L167.339,186.146C170.716,187.825 172.927,190.243 173.973,193.401C175.019,196.559 174.802,200.115 173.323,204.07C171.272,209.789 167.557,214.568 162.179,218.409C156.8,222.25 151.11,224.171 145.109,224.171C142.504,224.171 140.223,223.815 138.264,223.104Z" style="fill:#acacac;fill-rule:nonzero;"/>
        </g>
        <circle id="Pin-1-marker" serif:id="Pin 1 marker" cx="411.63" cy="411.722" r="21.604" style="fill:#acacac;"/>
        <path d="M165.952,404.467L165.952,425.88C165.952,426.422 165.756,426.885 165.364,427.269C164.973,427.653 164.506,427.845 163.964,427.845C163.422,427.845 162.955,427.653 162.563,427.269C162.172,426.885 161.976,426.422 161.976,425.88L161.976,404.467L156.329,404.467C155.817,404.467 155.358,404.267 154.951,403.868C154.545,403.469 154.342,403.006 154.342,402.479C154.342,401.952 154.545,401.489 154.951,401.09C155.358,400.691 155.817,400.491 156.329,400.491L171.599,400.491C172.111,400.491 172.57,400.691 172.976,401.09C173.383,401.489 173.586,401.952 173.586,402.479C173.586,403.006 173.383,403.469 172.976,403.868C172.57,404.267 172.111,404.467 171.599,404.467L165.952,404.467Z" style="fill:#acacac;fill-rule:nonzero;"/>
        <path d="M200.113,400.062C200.67,400.062 201.148,400.258 201.547,400.649C201.946,401.041 202.146,401.515 202.146,402.072L202.146,419.42C202.146,425.127 199.127,427.98 193.088,427.98C187.035,427.98 184.008,425.127 184.008,419.42L184.008,402.072C184.008,401.515 184.208,401.041 184.607,400.649C185.006,400.258 185.484,400.062 186.041,400.062C186.568,400.062 187.023,400.262 187.407,400.661C187.791,401.06 187.983,401.53 187.983,402.072L187.983,419.42C187.983,422.476 189.685,424.005 193.088,424.005C196.476,424.005 198.17,422.476 198.17,419.42L198.17,402.072C198.17,401.53 198.362,401.06 198.746,400.661C199.13,400.262 199.586,400.062 200.113,400.062Z" style="fill:#acacac;fill-rule:nonzero;"/>
        <path d="M226.075,426.444L216.995,407.968L216.995,425.88C216.995,426.422 216.795,426.885 216.396,427.269C215.997,427.653 215.519,427.845 214.962,427.845C214.435,427.845 213.979,427.649 213.595,427.257C213.211,426.866 213.019,426.407 213.019,425.88L213.019,402.072C213.019,401.53 213.211,401.06 213.595,400.661C213.979,400.262 214.435,400.062 214.962,400.062L216.295,400.062C217.108,400.062 217.755,400.529 218.237,401.462L227.362,420.052L227.362,402.072C227.362,401.515 227.562,401.041 227.961,400.649C228.36,400.258 228.838,400.062 229.395,400.062C229.922,400.062 230.378,400.262 230.762,400.661C231.146,401.06 231.338,401.53 231.338,402.072L231.338,425.88C231.338,426.407 231.146,426.866 230.762,427.257C230.378,427.649 229.922,427.845 229.395,427.845L228.063,427.845C227.219,427.845 226.557,427.378 226.075,426.444Z" style="fill:#acacac;fill-rule:nonzero;"/>
        <path d="M254.138,416.031L251.269,404.896L248.355,416.031L254.138,416.031ZM243.838,427.845C243.235,427.845 242.731,427.593 242.324,427.088C241.918,426.584 241.775,426.045 241.895,425.473L248.039,401.643C248.144,401.176 248.378,400.796 248.739,400.502C249.101,400.209 249.515,400.062 249.982,400.062L252.579,400.062C253.061,400.062 253.479,400.209 253.833,400.502C254.187,400.796 254.416,401.176 254.522,401.643L260.665,425.473C260.786,426.045 260.639,426.584 260.225,427.088C259.811,427.593 259.31,427.845 258.723,427.845C258.256,427.845 257.838,427.702 257.469,427.416C257.1,427.129 256.856,426.776 256.735,426.354L255.109,419.962L247.384,419.962L245.78,426.354C245.645,426.791 245.4,427.148 245.046,427.427C244.692,427.705 244.289,427.845 243.838,427.845Z" style="fill:#acacac;fill-rule:nonzero;"/>
        <path d="M283.239,416.031L280.371,404.896L277.457,416.031L283.239,416.031ZM272.939,427.845C272.337,427.845 271.833,427.593 271.426,427.088C271.019,426.584 270.876,426.045 270.997,425.473L277.141,401.643C277.246,401.176 277.48,400.796 277.841,400.502C278.202,400.209 278.616,400.062 279.083,400.062L281.681,400.062C282.163,400.062 282.581,400.209 282.934,400.502C283.288,400.796 283.518,401.176 283.623,401.643L289.767,425.473C289.888,426.045 289.741,426.584 289.327,427.088C288.913,427.593 288.412,427.845 287.825,427.845C287.358,427.845 286.94,427.702 286.571,427.416C286.202,427.129 285.957,426.776 285.837,426.354L284.211,419.962L276.486,419.962L274.882,426.354C274.746,426.791 274.502,427.148 274.148,427.427C273.794,427.705 273.391,427.845 272.939,427.845Z" style="fill:#acacac;fill-rule:nonzero;"/>
        <path d="M319.095,412.847C319.095,416.19 318.914,418.866 318.553,420.876C318.191,422.887 317.619,424.419 316.836,425.473C316.158,426.377 315.27,427.02 314.171,427.404C313.071,427.788 311.505,427.98 309.472,427.98C307.44,427.98 305.873,427.788 304.774,427.404C303.675,427.02 302.787,426.377 302.109,425.473C301.326,424.419 300.754,422.887 300.392,420.876C300.031,418.866 299.85,416.19 299.85,412.847C299.85,409.504 300.031,406.823 300.392,404.805C300.754,402.788 301.326,401.252 302.109,400.198C302.787,399.294 303.671,398.654 304.763,398.278C305.855,397.901 307.424,397.713 309.472,397.713C311.52,397.713 313.09,397.901 314.182,398.278C315.274,398.654 316.158,399.294 316.836,400.198C317.619,401.252 318.191,402.788 318.553,404.805C318.914,406.823 319.095,409.504 319.095,412.847ZM309.472,424.005C310.767,424.005 311.761,423.851 312.454,423.542C313.147,423.233 313.681,422.71 314.058,421.972C314.449,421.219 314.724,420.154 314.882,418.776C315.04,417.398 315.119,415.422 315.119,412.847C315.119,410.287 315.04,408.318 314.882,406.94C314.724,405.562 314.449,404.497 314.058,403.744C313.681,403.006 313.147,402.479 312.454,402.163C311.761,401.846 310.767,401.688 309.472,401.688C308.177,401.688 307.184,401.846 306.491,402.163C305.798,402.479 305.264,403.006 304.887,403.744C304.496,404.497 304.221,405.562 304.063,406.94C303.905,408.318 303.826,410.287 303.826,412.847C303.826,415.422 303.905,417.398 304.063,418.776C304.221,420.154 304.496,421.219 304.887,421.972C305.264,422.71 305.798,423.233 306.491,423.542C307.184,423.851 308.177,424.005 309.472,424.005Z" style="fill:#acacac;fill-rule:nonzero;"/>
        <path d="M348.196,412.847C348.196,416.19 348.016,418.866 347.654,420.876C347.293,422.887 346.721,424.419 345.938,425.473C345.26,426.377 344.372,427.02 343.272,427.404C342.173,427.788 340.607,427.98 338.574,427.98C336.541,427.98 334.975,427.788 333.876,427.404C332.777,427.02 331.888,426.377 331.211,425.473C330.428,424.419 329.855,422.887 329.494,420.876C329.133,418.866 328.952,416.19 328.952,412.847C328.952,409.504 329.133,406.823 329.494,404.805C329.855,402.788 330.428,401.252 331.211,400.198C331.888,399.294 332.773,398.654 333.865,398.278C334.956,397.901 336.526,397.713 338.574,397.713C340.622,397.713 342.192,397.901 343.284,398.278C344.375,398.654 345.26,399.294 345.938,400.198C346.721,401.252 347.293,402.788 347.654,404.805C348.016,406.823 348.196,409.504 348.196,412.847ZM338.574,424.005C339.869,424.005 340.863,423.851 341.556,423.542C342.248,423.233 342.783,422.71 343.159,421.972C343.551,421.219 343.826,420.154 343.984,418.776C344.142,417.398 344.221,415.422 344.221,412.847C344.221,410.287 344.142,408.318 343.984,406.94C343.826,405.562 343.551,404.497 343.159,403.744C342.783,403.006 342.248,402.479 341.556,402.163C340.863,401.846 339.869,401.688 338.574,401.688C337.279,401.688 336.285,401.846 335.593,402.163C334.9,402.479 334.365,403.006 333.989,403.744C333.597,404.497 333.323,405.562 333.164,406.94C333.006,408.318 332.927,410.287 332.927,412.847C332.927,415.422 333.006,417.398 333.164,418.776C333.323,420.154 333.597,421.219 333.989,421.972C334.365,422.71 334.9,423.233 335.593,423.542C336.285,423.851 337.279,424.005 338.574,424.005Z" style="fill:#acacac;fill-rule:nonzero;"/>
        <path d="M362.413,407.335C361.916,407.666 361.502,407.832 361.171,407.832C360.613,407.832 360.139,407.633 359.748,407.234C359.356,406.835 359.16,406.364 359.16,405.822C359.16,405.295 359.394,404.783 359.861,404.286L366.84,398.413C367.307,398.037 367.714,397.848 368.06,397.848L369.438,397.848C369.965,397.848 370.42,398.048 370.804,398.447C371.188,398.846 371.38,399.324 371.38,399.881L371.38,425.834C371.38,426.392 371.188,426.866 370.804,427.257C370.42,427.649 369.95,427.845 369.393,427.845C368.835,427.845 368.365,427.649 367.981,427.257C367.597,426.866 367.405,426.392 367.405,425.834L367.405,403.089L362.413,407.335Z" style="fill:#acacac;fill-rule:nonzero;"/>
        <path d="M93.558,298.281C92.959,298.281 92.446,298.071 92.017,297.65C91.589,297.23 91.374,296.737 91.374,296.17L91.374,268.903L104.741,268.903C105.34,268.903 105.845,269.109 106.258,269.521C106.67,269.934 106.876,270.439 106.876,271.037C106.876,271.636 106.67,272.141 106.258,272.554C105.845,272.966 105.34,273.172 104.741,273.172L95.644,273.172L95.644,280.668L102.849,280.668C103.448,280.668 103.953,280.875 104.365,281.287C104.778,281.7 104.984,282.205 104.984,282.803C104.984,283.402 104.778,283.907 104.365,284.32C103.953,284.732 103.448,284.938 102.849,284.938L95.644,284.938L95.644,296.17C95.644,296.737 95.434,297.23 95.013,297.65C94.593,298.071 94.108,298.281 93.558,298.281Z" style="fill:#acacac;fill-rule:nonzero;"/>
        <path d="M128.986,294.157C130.766,294.157 132.221,293.134 133.353,291.088C134.485,289.042 135.051,286.467 135.051,283.361C135.051,280.272 134.485,277.701 133.353,275.647C132.221,273.593 130.766,272.566 128.986,272.566C127.207,272.566 125.752,273.593 124.62,275.647C123.488,277.701 122.922,280.272 122.922,283.361C122.922,286.467 123.488,289.042 124.62,291.088C125.752,293.134 127.207,294.157 128.986,294.157ZM139.321,283.361C139.321,285.076 139.091,286.814 138.63,288.577C138.169,290.34 137.526,291.925 136.701,293.332C134.712,296.728 132.14,298.427 128.986,298.427C125.833,298.427 123.261,296.728 121.272,293.332C120.447,291.925 119.804,290.34 119.343,288.577C118.882,286.814 118.652,285.076 118.652,283.361C118.652,281.647 118.882,279.908 119.343,278.145C119.804,276.383 120.447,274.798 121.272,273.391C123.261,269.994 125.833,268.296 128.986,268.296C132.14,268.296 134.712,269.994 136.701,273.391C137.526,274.798 138.169,276.383 138.63,278.145C139.091,279.908 139.321,281.647 139.321,283.361Z" style="fill:#acacac;fill-rule:nonzero;"/>
        <path d="M151.169,295.127L157.525,282.997L151.169,271.595C150.781,270.9 150.793,270.2 151.206,269.497C151.618,268.793 152.213,268.442 152.989,268.442C153.361,268.442 153.725,268.543 154.081,268.745C154.436,268.947 154.687,269.202 154.833,269.509L160.243,279.189L165.677,269.509C165.822,269.202 166.069,268.947 166.417,268.745C166.764,268.543 167.124,268.442 167.496,268.442C168.289,268.442 168.891,268.793 169.304,269.497C169.716,270.2 169.728,270.9 169.34,271.595L162.984,282.997L169.34,295.127C169.728,295.855 169.72,296.563 169.316,297.25C168.911,297.937 168.305,298.281 167.496,298.281C167.124,298.281 166.764,298.18 166.417,297.978C166.069,297.776 165.822,297.521 165.677,297.214L160.243,287.122L154.833,297.214C154.687,297.521 154.436,297.776 154.081,297.978C153.725,298.18 153.361,298.281 152.989,298.281C152.196,298.281 151.598,297.937 151.194,297.25C150.789,296.563 150.781,295.855 151.169,295.127Z" style="fill:#acacac;fill-rule:nonzero;"/>
        <path d="M182.522,297.02C181.617,296.712 181.164,296.073 181.164,295.103C181.164,294.569 181.39,294.08 181.843,293.635C182.296,293.191 182.789,292.968 183.323,292.968C183.323,292.968 184.107,293.162 185.676,293.55C187.245,293.955 188.644,294.157 189.873,294.157C192.105,294.157 193.896,293.623 195.247,292.556C196.597,291.488 197.272,290.065 197.272,288.286C197.272,286.458 196.512,284.991 194.992,283.883C193.472,282.775 191.466,282.221 188.976,282.221C188.377,282.221 187.864,282.003 187.435,281.566C187.006,281.129 186.792,280.604 186.792,279.989C186.792,279.423 187.002,278.97 187.423,278.631L194.798,270.795L183.469,270.795C182.886,270.795 182.385,270.585 181.965,270.164C181.544,269.744 181.334,269.242 181.334,268.66C181.334,268.094 181.548,267.597 181.977,267.168C182.405,266.739 182.903,266.525 183.469,266.525L198.364,266.525C198.914,266.525 199.399,266.731 199.82,267.144C200.24,267.556 200.45,268.037 200.45,268.587L200.45,270.237C200.45,270.771 200.248,271.24 199.844,271.644L193.391,278.485C195.882,279.132 197.863,280.321 199.334,282.051C200.806,283.782 201.542,285.86 201.542,288.286C201.542,291.327 200.475,293.777 198.34,295.637C196.205,297.497 193.383,298.427 189.873,298.427C188.725,298.427 187.411,298.281 185.931,297.99C184.451,297.699 183.315,297.375 182.522,297.02Z" style="fill:#acacac;fill-rule:nonzero;"/>
        <path d="M216.35,271.984C216.01,272.178 215.663,272.275 215.307,272.275C214.741,272.275 214.244,272.06 213.815,271.632C213.386,271.203 213.172,270.706 213.172,270.14C213.172,269.363 213.52,268.765 214.215,268.345C215.897,267.374 217.329,266.727 218.509,266.404C219.69,266.08 221.105,265.919 222.755,265.919C225.553,265.919 227.801,266.719 229.499,268.32C231.197,269.921 232.046,272.072 232.046,274.773C232.046,277.005 231.116,279.084 229.256,281.008C228.011,282.318 225.763,284.016 222.512,286.103C220.879,287.154 219.714,288.229 219.019,289.329C218.323,290.429 217.943,291.836 217.878,293.55L230.202,293.55C230.801,293.55 231.306,293.757 231.719,294.169C232.131,294.581 232.337,295.087 232.337,295.685C232.337,296.284 232.131,296.789 231.719,297.202C231.306,297.614 230.801,297.82 230.202,297.82L215.792,297.82C215.21,297.82 214.708,297.61 214.288,297.189C213.867,296.769 213.657,296.268 213.657,295.685L213.657,294.108C213.657,289.143 215.897,285.262 220.377,282.464C223.482,280.539 225.492,279.084 226.406,278.097C227.32,277.11 227.776,276.003 227.776,274.773C227.776,273.366 227.32,272.25 226.406,271.426C225.492,270.601 224.275,270.188 222.755,270.188C221.412,270.188 220.284,270.314 219.37,270.564C218.457,270.815 217.45,271.288 216.35,271.984Z" style="fill:#acacac;fill-rule:nonzero;"/>
        <path d="M249.838,298.281C249.24,298.281 248.726,298.071 248.298,297.65C247.869,297.23 247.655,296.737 247.655,296.17L247.655,268.903L261.022,268.903C261.62,268.903 262.126,269.109 262.538,269.521C262.95,269.934 263.157,270.439 263.157,271.037C263.157,271.636 262.95,272.141 262.538,272.554C262.126,272.966 261.62,273.172 261.022,273.172L251.924,273.172L251.924,280.668L259.13,280.668C259.728,280.668 260.233,280.875 260.646,281.287C261.058,281.7 261.264,282.205 261.264,282.803C261.264,283.402 261.058,283.907 260.646,284.32C260.233,284.732 259.728,284.938 259.13,284.938L251.924,284.938L251.924,296.17C251.924,296.737 251.714,297.23 251.294,297.65C250.873,298.071 250.388,298.281 249.838,298.281Z" style="fill:#acacac;fill-rule:nonzero;"/>
        <path d="M295.601,288.917C295.601,289.467 295.383,289.96 294.946,290.397C294.51,290.833 294.016,291.052 293.467,291.052L291.38,291.052L291.38,296.17C291.38,296.737 291.166,297.23 290.737,297.65C290.309,298.071 289.795,298.281 289.197,298.281C288.647,298.281 288.162,298.071 287.741,297.65C287.321,297.23 287.111,296.737 287.111,296.17L287.111,291.052L276.97,291.052C276.469,291.052 276.004,290.845 275.575,290.433C275.146,290.021 274.932,289.548 274.932,289.014L274.932,287.073C274.932,286.863 275.013,286.58 275.175,286.224L284.03,267.301C284.191,266.946 284.45,266.65 284.806,266.416C285.162,266.181 285.534,266.064 285.922,266.064C286.52,266.064 287.034,266.278 287.462,266.707C287.891,267.136 288.105,267.649 288.105,268.248C288.105,268.49 288.04,268.773 287.911,269.097L279.663,286.782L287.111,286.782L287.111,282.367C287.111,281.784 287.317,281.283 287.729,280.863C288.142,280.442 288.631,280.232 289.197,280.232C289.795,280.232 290.309,280.442 290.737,280.863C291.166,281.283 291.38,281.784 291.38,282.367L291.38,286.782L293.467,286.782C294.033,286.782 294.53,286.996 294.959,287.425C295.387,287.853 295.601,288.351 295.601,288.917Z" style="fill:#acacac;fill-rule:nonzero;"/>
        <path d="M310.118,271.984C309.779,272.178 309.431,272.275 309.075,272.275C308.509,272.275 308.012,272.06 307.583,271.632C307.155,271.203 306.94,270.706 306.94,270.14C306.94,269.363 307.288,268.765 307.983,268.345C309.665,267.374 311.097,266.727 312.277,266.404C313.458,266.08 314.873,265.919 316.523,265.919C319.321,265.919 321.569,266.719 323.267,268.32C324.965,269.921 325.814,272.072 325.814,274.773C325.814,277.005 324.884,279.084 323.024,281.008C321.779,282.318 319.531,284.016 316.28,286.103C314.647,287.154 313.482,288.229 312.787,289.329C312.091,290.429 311.711,291.836 311.647,293.55L323.971,293.55C324.569,293.55 325.074,293.757 325.487,294.169C325.899,294.581 326.105,295.087 326.105,295.685C326.105,296.284 325.899,296.789 325.487,297.202C325.074,297.614 324.569,297.82 323.971,297.82L309.56,297.82C308.978,297.82 308.477,297.61 308.056,297.189C307.636,296.769 307.425,296.268 307.425,295.685L307.425,294.108C307.425,289.143 309.665,285.262 314.145,282.464C317.251,280.539 319.26,279.084 320.174,278.097C321.088,277.11 321.545,276.003 321.545,274.773C321.545,273.366 321.088,272.25 320.174,271.426C319.26,270.601 318.043,270.188 316.523,270.188C315.18,270.188 314.052,270.314 313.139,270.564C312.225,270.815 311.218,271.288 310.118,271.984Z" style="fill:#acacac;fill-rule:nonzero;"/>
        <path d="M358.114,282.173C358.114,285.763 357.919,288.638 357.531,290.797C357.143,292.956 356.529,294.602 355.688,295.734C354.96,296.704 354.006,297.396 352.825,297.808C351.644,298.22 349.962,298.427 347.779,298.427C345.595,298.427 343.913,298.22 342.733,297.808C341.552,297.396 340.598,296.704 339.87,295.734C339.029,294.602 338.415,292.956 338.026,290.797C337.638,288.638 337.444,285.763 337.444,282.173C337.444,278.582 337.638,275.703 338.026,273.536C338.415,271.369 339.029,269.719 339.87,268.587C340.598,267.617 341.548,266.929 342.721,266.525C343.893,266.121 345.579,265.919 347.779,265.919C349.978,265.919 351.664,266.121 352.837,266.525C354.01,266.929 354.96,267.617 355.688,268.587C356.529,269.719 357.143,271.369 357.531,273.536C357.919,275.703 358.114,278.582 358.114,282.173ZM347.779,294.157C349.17,294.157 350.237,293.991 350.981,293.66C351.725,293.328 352.299,292.766 352.704,291.974C353.124,291.165 353.419,290.021 353.589,288.541C353.759,287.061 353.844,284.938 353.844,282.173C353.844,279.423 353.759,277.309 353.589,275.829C353.419,274.349 353.124,273.205 352.704,272.396C352.299,271.603 351.725,271.037 350.981,270.698C350.237,270.358 349.17,270.188 347.779,270.188C346.388,270.188 345.321,270.358 344.577,270.698C343.833,271.037 343.258,271.603 342.854,272.396C342.434,273.205 342.138,274.349 341.969,275.829C341.799,277.309 341.714,279.423 341.714,282.173C341.714,284.938 341.799,287.061 341.969,288.541C342.138,290.021 342.434,291.165 342.854,291.974C343.258,292.766 343.833,293.328 344.577,293.66C345.321,293.991 346.388,294.157 347.779,294.157Z" style="fill:#acacac;fill-rule:nonzero;"/>
        <path d="M372.97,287.971C372.97,289.814 373.516,291.306 374.608,292.447C375.699,293.587 377.175,294.157 379.035,294.157C380.879,294.157 382.35,293.591 383.45,292.459C384.55,291.327 385.1,289.831 385.1,287.971C385.1,286.111 384.55,284.627 383.45,283.519C382.35,282.411 380.879,281.857 379.035,281.857C377.191,281.857 375.719,282.411 374.62,283.519C373.52,284.627 372.97,286.111 372.97,287.971ZM384.202,268.248C384.202,268.765 384.008,269.234 383.62,269.655C380.984,272.517 379.29,274.401 378.538,275.307C377.786,276.213 377.175,277.038 376.706,277.782C377.547,277.62 378.323,277.555 379.035,277.588C382.237,277.733 384.76,278.736 386.604,280.596C388.448,282.456 389.37,284.914 389.37,287.971C389.37,291.124 388.432,293.656 386.555,295.564C384.679,297.472 382.173,298.427 379.035,298.427C375.897,298.427 373.391,297.472 371.514,295.564C369.638,293.656 368.7,291.124 368.7,287.971C368.7,284.785 369.549,281.659 371.248,278.594C372.946,275.529 376.035,271.603 380.515,266.816C380.935,266.315 381.453,266.064 382.067,266.064C382.633,266.064 383.131,266.282 383.559,266.719C383.988,267.156 384.202,267.665 384.202,268.248Z" style="fill:#acacac;fill-rule:nonzero;"/>
        <path d="M405.075,296.17C405.075,295.621 405.269,295.127 405.657,294.691C406.385,293.898 407.121,293.106 407.865,292.313C408.512,291.602 409.159,290.89 409.806,290.178C411.116,288.707 412.054,287.494 412.62,286.539C411.811,286.701 411.035,286.782 410.291,286.782C407.153,286.782 404.647,285.832 402.77,283.931C400.894,282.031 399.956,279.52 399.956,276.399C399.956,273.245 400.894,270.71 402.77,268.793C404.647,266.877 407.153,265.919 410.291,265.919C413.429,265.919 415.935,266.877 417.812,268.793C419.688,270.71 420.626,273.245 420.626,276.399C420.626,279.569 419.773,282.69 418.066,285.763C416.36,288.836 413.251,292.79 408.738,297.626C408.35,298.063 407.841,298.281 407.21,298.281C406.644,298.281 406.147,298.071 405.718,297.65C405.289,297.23 405.075,296.737 405.075,296.17ZM416.356,276.399C416.356,274.555 415.81,273.059 414.718,271.911C413.627,270.762 412.151,270.188 410.291,270.188C408.447,270.188 406.975,270.758 405.876,271.899C404.776,273.039 404.226,274.539 404.226,276.399C404.226,278.243 404.776,279.722 405.876,280.838C406.975,281.954 408.447,282.512 410.291,282.512C412.135,282.512 413.606,281.954 414.706,280.838C415.806,279.722 416.356,278.243 416.356,276.399Z" style="fill:#acacac;fill-rule:nonzero;"/>
        <g id="LEG-logo" serif:id="LEG logo">
            <rect x="257.55" y="213.475" width="168.488" height="14.643" style="fill:#acacac;"/>
            <path d="M268.932,210.486L268.932,153.667L280.219,153.667L280.219,200.681L307.318,200.681L307.318,210.486L268.932,210.486Z" style="fill:#acacac;fill-rule:nonzero;"/>
            <path d="M318.088,210.486L318.088,153.667L360.883,153.667L360.883,163.473L329.376,163.473L329.376,176.243L357.804,176.243L357.804,186.048L329.376,186.048L329.376,200.681L360.883,200.681L360.883,210.486L318.088,210.486Z" style="fill:#acacac;fill-rule:nonzero;"/>
            <path d="M412.966,210.486L411.408,205.279C406.923,209.384 401.172,211.436 394.153,211.436C391.062,211.436 388.104,210.835 385.279,209.631C382.454,208.427 379.964,206.698 377.811,204.443C372.667,199.072 370.095,191.61 370.095,182.058C370.095,173.215 372.642,166.095 377.735,160.698C382.751,155.378 389.263,152.717 397.27,152.717C404.06,152.717 409.634,154.51 413.992,158.095C418.35,161.68 420.998,166.64 421.935,172.974L410.648,172.974C409.761,169.68 408.133,167.115 405.764,165.278C403.395,163.441 400.513,162.523 397.118,162.523C392.151,162.523 388.288,164.252 385.526,167.71C382.764,171.169 381.383,175.951 381.383,182.058C381.383,188.139 382.694,192.921 385.317,196.405C387.939,199.889 391.48,201.631 395.939,201.631C400.171,201.631 403.718,200.377 406.581,197.868C409.292,195.486 410.648,192.712 410.648,189.545L397.042,189.545L397.042,179.739L421.935,179.739L421.935,210.486L412.966,210.486Z" style="fill:#acacac;fill-rule:nonzero;"/>
        </g>
        <path d="M201.876,317.569L198.53,336.546L209.382,336.546C209.877,336.546 210.265,336.716 210.546,337.057C210.827,337.398 210.924,337.816 210.836,338.311C210.749,338.806 210.505,339.224 210.104,339.565C209.703,339.906 209.255,340.076 208.76,340.076L194.377,340.076L198.345,317.569C198.433,317.074 198.677,316.653 199.08,316.305C199.482,315.957 199.931,315.784 200.425,315.784C200.92,315.784 201.308,315.957 201.587,316.305C201.867,316.653 201.963,317.074 201.876,317.569Z" style="fill:#acacac;fill-rule:nonzero;"/>
        <path d="M220.499,339.414C219.795,339.16 219.514,338.632 219.655,337.83C219.733,337.388 219.992,336.984 220.431,336.616C220.87,336.248 221.31,336.064 221.752,336.064C221.752,336.064 222.372,336.225 223.613,336.546C224.851,336.88 225.978,337.047 226.995,337.047C228.84,337.047 230.399,336.606 231.671,335.723C232.944,334.841 233.71,333.664 233.969,332.193C234.235,330.682 233.821,329.468 232.725,328.552C231.63,327.636 230.052,327.178 227.993,327.178C227.498,327.178 227.105,326.997 226.814,326.636C226.524,326.275 226.423,325.84 226.513,325.332C226.595,324.864 226.835,324.49 227.232,324.209L234.473,317.729L225.105,317.729C224.624,317.729 224.24,317.556 223.953,317.208C223.667,316.86 223.566,316.446 223.651,315.964C223.734,315.496 223.983,315.085 224.4,314.73C224.817,314.376 225.26,314.199 225.728,314.199L238.044,314.199C238.499,314.199 238.87,314.369 239.158,314.71C239.445,315.051 239.549,315.449 239.469,315.904L239.228,317.268C239.151,317.709 238.915,318.097 238.522,318.432L232.188,324.089C234.154,324.623 235.618,325.606 236.583,327.037C237.548,328.468 237.853,330.187 237.5,332.193C237.056,334.707 235.816,336.733 233.78,338.271C231.743,339.809 229.274,340.578 226.372,340.578C225.423,340.578 224.357,340.458 223.176,340.217C221.995,339.976 221.103,339.709 220.499,339.414Z" style="fill:#acacac;fill-rule:nonzero;"/>
        <path d="M264.789,318.652C265.085,319.254 265.007,319.866 264.556,320.488C264.105,321.11 263.546,321.421 262.877,321.421C262.596,321.421 262.328,321.347 262.073,321.2C261.819,321.053 261.662,320.879 261.604,320.678C261.096,319.689 260.06,319.194 258.495,319.194C256.61,319.194 255.045,319.953 253.801,321.471C252.557,322.989 251.676,325.219 251.157,328.161C250.629,331.156 250.694,333.386 251.352,334.851C252.009,336.315 253.288,337.047 255.187,337.047C256.859,337.047 258.036,336.893 258.719,336.586L259.762,330.668L255.971,330.668C255.503,330.668 255.123,330.491 254.831,330.137C254.539,329.782 254.434,329.371 254.517,328.903C254.602,328.421 254.849,328.007 255.258,327.659C255.667,327.311 256.112,327.138 256.593,327.138L263.915,327.138L261.91,338.512C260.049,339.889 257.6,340.578 254.564,340.578C248.479,340.578 246.167,336.439 247.627,328.161C248.341,324.109 249.683,321.013 251.651,318.873C253.62,316.733 256.109,315.663 259.118,315.663C261.9,315.663 263.79,316.66 264.789,318.652Z" style="fill:#acacac;fill-rule:nonzero;"/>
        <path d="M290.635,318.652C290.93,319.254 290.852,319.866 290.401,320.488C289.951,321.11 289.391,321.421 288.722,321.421C288.441,321.421 288.174,321.347 287.919,321.2C287.664,321.053 287.507,320.879 287.449,320.678C286.941,319.689 285.905,319.194 284.341,319.194C282.455,319.194 280.89,319.953 279.646,321.471C278.402,322.989 277.521,325.219 277.002,328.161C276.474,331.156 276.539,333.386 277.197,334.851C277.855,336.315 279.133,337.047 281.032,337.047C282.704,337.047 283.881,336.893 284.564,336.586L285.607,330.668L281.816,330.668C281.348,330.668 280.968,330.491 280.676,330.137C280.384,329.782 280.279,329.371 280.362,328.903C280.447,328.421 280.694,328.007 281.103,327.659C281.512,327.311 281.957,327.138 282.438,327.138L289.76,327.138L287.755,338.512C285.894,339.889 283.445,340.578 280.41,340.578C274.325,340.578 272.012,336.439 273.472,328.161C274.186,324.109 275.528,321.013 277.497,318.873C279.465,316.733 281.954,315.663 284.963,315.663C287.745,315.663 289.635,316.66 290.635,318.652Z" style="fill:#acacac;fill-rule:nonzero;"/>
        <path d="M301.641,318.391C301.44,317.79 301.556,317.205 301.991,316.636C302.425,316.068 302.97,315.784 303.626,315.784C303.933,315.784 304.219,315.867 304.484,316.034C304.749,316.202 304.919,316.412 304.995,316.666L307.993,325.031L313.941,316.666C314.107,316.412 314.351,316.202 314.675,316.034C314.998,315.867 315.314,315.784 315.622,315.784C316.277,315.784 316.722,316.068 316.956,316.636C317.19,317.205 317.1,317.79 316.686,318.391L309.012,329.264L307.346,338.712C307.261,339.194 307.015,339.605 306.607,339.946C306.199,340.287 305.754,340.458 305.273,340.458C304.792,340.458 304.407,340.287 304.119,339.946C303.832,339.605 303.731,339.194 303.815,338.712L305.481,329.264L301.641,318.391Z" style="fill:#acacac;fill-rule:nonzero;"/>
        <path d="M355.502,318.712C355.193,318.873 354.891,318.953 354.597,318.953C354.129,318.953 353.749,318.776 353.457,318.422C353.165,318.067 353.06,317.656 353.143,317.188C353.256,316.546 353.631,316.051 354.267,315.703C355.799,314.901 357.077,314.366 358.101,314.099C359.124,313.831 360.318,313.697 361.682,313.697C363.996,313.697 365.738,314.359 366.908,315.683C368.079,317.007 368.468,318.786 368.074,321.019C367.748,322.865 366.676,324.583 364.858,326.175C363.637,327.258 361.531,328.662 358.538,330.387C357.034,331.257 355.915,332.146 355.179,333.055C354.444,333.965 353.925,335.128 353.621,336.546L363.812,336.546C364.306,336.546 364.694,336.716 364.975,337.057C365.256,337.398 365.353,337.816 365.266,338.311C365.178,338.806 364.934,339.224 364.533,339.565C364.132,339.906 363.684,340.076 363.189,340.076L351.273,340.076C350.792,340.076 350.408,339.903 350.122,339.555C349.835,339.207 349.734,338.793 349.819,338.311L350.049,337.007C350.773,332.902 353.191,329.692 357.304,327.378C360.152,325.787 362.026,324.583 362.925,323.768C363.825,322.952 364.364,322.036 364.543,321.019C364.748,319.856 364.533,318.933 363.898,318.251C363.263,317.569 362.316,317.228 361.059,317.228C359.949,317.228 358.998,317.332 358.206,317.539C357.414,317.746 356.513,318.137 355.502,318.712Z" style="fill:#acacac;fill-rule:nonzero;"/>
        <path d="M375.57,339.414C374.866,339.16 374.585,338.632 374.726,337.83C374.804,337.388 375.063,336.984 375.502,336.616C375.941,336.248 376.382,336.064 376.823,336.064C376.823,336.064 377.443,336.225 378.684,336.546C379.922,336.88 381.05,337.047 382.066,337.047C383.911,337.047 385.47,336.606 386.743,335.723C388.015,334.841 388.781,333.664 389.04,332.193C389.307,330.682 388.892,329.468 387.797,328.552C386.701,327.636 385.123,327.178 383.064,327.178C382.569,327.178 382.176,326.997 381.886,326.636C381.595,326.275 381.494,325.84 381.584,325.332C381.666,324.864 381.906,324.49 382.304,324.209L389.544,317.729L380.176,317.729C379.695,317.729 379.311,317.556 379.025,317.208C378.738,316.86 378.637,316.446 378.722,315.964C378.805,315.496 379.055,315.085 379.471,314.73C379.888,314.376 380.331,314.199 380.799,314.199L393.116,314.199C393.57,314.199 393.942,314.369 394.229,314.71C394.517,315.051 394.62,315.449 394.54,315.904L394.3,317.268C394.222,317.709 393.986,318.097 393.593,318.432L387.26,324.089C389.225,324.623 390.69,325.606 391.654,327.037C392.619,328.468 392.924,330.187 392.571,332.193C392.127,334.707 390.888,336.733 388.851,338.271C386.815,339.809 384.345,340.578 381.443,340.578C380.494,340.578 379.428,340.458 378.247,340.217C377.066,339.976 376.174,339.709 375.57,339.414Z" style="fill:#acacac;fill-rule:nonzero;"/>
        <path d="M408.312,340.578C406.118,340.578 404.5,340.046 403.457,338.983C402.415,337.92 402.053,336.479 402.374,334.66C402.459,334.179 402.694,333.778 403.078,333.457C403.462,333.136 403.902,332.975 404.396,332.975C404.838,332.975 405.199,333.126 405.48,333.426C405.762,333.727 405.872,334.085 405.813,334.5C405.674,336.198 406.714,337.047 408.934,337.047C410.258,337.047 411.348,336.746 412.203,336.145C413.058,335.543 413.577,334.72 413.761,333.677C414.02,332.206 413.206,330.982 411.319,330.006L408.695,328.622C405.556,327.004 404.236,324.784 404.734,321.962C405.057,320.13 405.991,318.622 407.537,317.439C409.083,316.255 410.913,315.663 413.026,315.663C414.858,315.663 416.268,316.028 417.256,316.757C418.244,317.485 418.866,318.646 419.12,320.237C419.206,320.812 419.036,321.337 418.612,321.812C418.187,322.286 417.68,322.524 417.092,322.524C416.691,322.524 416.357,322.403 416.092,322.163C415.827,321.922 415.675,321.608 415.637,321.22C415.367,319.869 414.289,319.194 412.403,319.194C411.333,319.194 410.412,319.451 409.639,319.966C408.866,320.481 408.408,321.146 408.264,321.962C408.132,322.711 408.289,323.373 408.736,323.948C409.183,324.523 410.008,325.118 411.21,325.733L413.362,326.837C414.857,327.612 415.947,328.599 416.632,329.796C417.317,330.993 417.537,332.286 417.292,333.677C416.919,335.79 415.934,337.469 414.338,338.712C412.741,339.956 410.732,340.578 408.312,340.578Z" style="fill:#acacac;fill-rule:nonzero;"/>
    </g>
    <path d="M55.494,421.448C55.361,421.354 55.244,421.22 55.142,421.046C55.041,420.872 54.99,420.711 54.99,420.562C54.99,420.312 55.078,420.113 55.254,419.964C55.43,419.815 55.639,419.763 55.881,419.805L60.721,420.659C61.01,420.71 61.244,420.696 61.424,420.619C61.603,420.541 61.693,420.412 61.693,420.232C61.693,419.811 61.506,419.486 61.131,419.26C60.756,419.034 60.037,418.827 58.975,418.64L55.787,418.078C54.076,417.776 52.816,417.82 52.008,418.208C51.199,418.597 50.795,419.35 50.795,420.467C50.795,421.295 50.937,421.982 51.223,422.529C51.508,423.075 51.885,423.39 52.353,423.472C52.596,423.515 52.808,423.642 52.992,423.854C53.176,424.067 53.267,424.298 53.267,424.548C53.267,424.79 53.176,424.986 52.992,425.138C52.808,425.289 52.596,425.343 52.353,425.3C51.471,425.145 50.713,424.656 50.08,423.833C49.338,422.866 48.967,421.637 48.967,420.145C48.967,416.762 51.24,415.471 55.787,416.273L58.975,416.835C62.006,417.37 63.521,418.609 63.521,420.555C63.521,421.234 63.248,421.753 62.701,422.109C63.193,422.665 63.439,423.443 63.439,424.443C63.439,425.458 63.103,426.141 62.432,426.492C61.76,426.842 60.697,426.889 59.244,426.633C57.838,426.385 56.766,425.963 56.027,425.368C55.289,424.773 54.92,424.038 54.92,423.163C54.92,422.366 55.111,421.795 55.494,421.448ZM60.603,422.466L57.92,421.993C57.139,422.277 56.748,422.775 56.748,423.485C56.748,423.814 56.93,424.074 57.293,424.267C57.656,424.46 58.307,424.639 59.244,424.804C60.15,424.964 60.771,424.994 61.107,424.893C61.443,424.792 61.611,424.534 61.611,424.12C61.611,423.745 61.533,423.429 61.377,423.171C61.221,422.913 60.963,422.678 60.603,422.466Z" style="fill:#2c2c2c;fill-rule:nonzero;"/>
    <path d="M62.537,405.424C62.787,405.468 63.002,405.595 63.182,405.807C63.361,406.018 63.451,406.249 63.451,406.499C63.451,406.749 63.361,406.948 63.182,407.096C63.002,407.244 62.787,407.296 62.537,407.252L54.732,405.875L54.732,408.465C54.732,408.707 54.642,408.903 54.463,409.051C54.283,409.199 54.068,409.251 53.818,409.206C53.568,409.162 53.353,409.037 53.174,408.829C52.994,408.622 52.904,408.393 52.904,408.143L52.904,404.662C52.904,404.405 52.994,404.2 53.174,404.048C53.353,403.896 53.568,403.842 53.818,403.886L62.537,405.424ZM47.959,403.65C47.959,403.4 48.047,403.204 48.223,403.064C48.398,402.923 48.615,402.875 48.873,402.92L49.787,403.082C50.029,403.124 50.24,403.249 50.42,403.457C50.6,403.664 50.689,403.889 50.689,404.131L50.689,405.045C50.689,405.28 50.598,405.473 50.414,405.624C50.23,405.775 50.021,405.83 49.787,405.789L48.873,405.627C48.631,405.585 48.418,405.457 48.234,405.245C48.051,405.033 47.959,404.806 47.959,404.564L47.959,403.65Z" style="fill:#2c2c2c;fill-rule:nonzero;"/>
    <path d="M63.451,395.959C63.451,396.217 63.361,396.422 63.182,396.574C63.002,396.725 62.787,396.779 62.537,396.735L53.584,395.157C53.342,395.114 53.133,394.985 52.957,394.771C52.781,394.556 52.693,394.32 52.693,394.062C52.693,393.82 52.781,393.626 52.957,393.482C53.133,393.337 53.342,393.286 53.584,393.329L54.064,393.413C53.103,392.236 52.623,391.007 52.623,389.725C52.623,388.499 53.023,387.611 53.824,387.06C54.625,386.51 55.728,386.359 57.135,386.607L62.537,387.56C62.787,387.604 63.002,387.731 63.182,387.943C63.361,388.154 63.451,388.385 63.451,388.635C63.451,388.877 63.361,389.074 63.182,389.226C63.002,389.378 62.787,389.432 62.537,389.388L57.135,388.435C56.283,388.285 55.623,388.35 55.154,388.631C54.685,388.911 54.451,389.384 54.451,390.048C54.451,390.759 54.66,391.417 55.078,392.022C55.496,392.627 56.205,393.275 57.205,393.967L62.537,394.907C62.787,394.951 63.002,395.077 63.182,395.285C63.361,395.492 63.451,395.717 63.451,395.959Z" style="fill:#2c2c2c;fill-rule:nonzero;"/>
    <path d="M56.725,373.218C55.209,373.786 54.451,374.684 54.451,375.91C54.451,376.746 54.773,377.471 55.418,378.085C56.062,378.698 56.939,379.103 58.049,379.299C59.166,379.496 60.053,379.4 60.709,379.012C61.365,378.624 61.693,378.016 61.693,377.187C61.693,376.578 61.5,375.991 61.113,375.427C60.726,374.863 60.111,374.276 59.267,373.666L56.725,373.218ZM62.537,372.414C62.787,372.458 63.002,372.586 63.182,372.797C63.361,373.009 63.451,373.24 63.451,373.49C63.451,373.74 63.361,373.939 63.182,374.087C63.002,374.235 62.787,374.287 62.537,374.242L62.221,374.187C63.088,375.238 63.521,376.346 63.521,377.51C63.521,378.877 63.027,379.895 62.039,380.565C61.051,381.234 59.721,381.422 58.049,381.127C56.377,380.832 55.055,380.183 54.082,379.179C53.109,378.176 52.623,376.979 52.623,375.588C52.623,374.393 53.064,373.439 53.947,372.728L48.873,371.833C48.623,371.789 48.408,371.661 48.228,371.45C48.049,371.239 47.959,371.008 47.959,370.758C47.959,370.508 48.049,370.309 48.228,370.161C48.408,370.013 48.623,369.961 48.873,370.005L62.537,372.414Z" style="fill:#2c2c2c;fill-rule:nonzero;"/>
    <path d="M62.537,365.003L53.607,363.429C53.35,363.383 53.133,363.257 52.957,363.051C52.781,362.844 52.693,362.612 52.693,362.354C52.693,362.096 52.781,361.895 52.957,361.75C53.133,361.605 53.35,361.555 53.607,361.601L53.9,361.652C53.049,360.729 52.623,359.716 52.623,358.615C52.623,357.841 52.846,357.238 53.291,356.805C53.736,356.372 54.353,356.158 55.142,356.164C55.424,356.159 55.67,356.261 55.881,356.47C56.092,356.679 56.197,356.925 56.197,357.206C56.197,357.417 56.129,357.598 55.992,357.75C55.855,357.901 55.685,357.975 55.482,357.97C54.795,357.959 54.451,358.281 54.451,358.937C54.451,359.625 54.764,360.266 55.389,360.86C56.014,361.455 56.908,361.964 58.072,362.388L62.537,363.175C62.787,363.219 63.002,363.349 63.182,363.564C63.361,363.78 63.451,364.016 63.451,364.274C63.451,364.516 63.361,364.709 63.182,364.853C63.002,364.998 62.787,365.048 62.537,365.003Z" style="fill:#2c2c2c;fill-rule:nonzero;"/>
    <path d="M58.072,350.934C56.447,350.648 55.133,349.969 54.129,348.897C53.125,347.826 52.623,346.559 52.623,345.098C52.623,343.645 53.125,342.56 54.129,341.842C55.133,341.125 56.447,340.909 58.072,341.196C59.689,341.481 61.002,342.162 62.01,343.238C63.017,344.314 63.521,345.575 63.521,347.02C63.521,348.473 63.017,349.56 62.01,350.281C61.002,351.002 59.689,351.219 58.072,350.934ZM54.451,345.421C54.451,346.335 54.783,347.13 55.447,347.805C56.111,348.481 56.986,348.915 58.072,349.106C59.142,349.295 60.014,349.167 60.685,348.723C61.357,348.279 61.693,347.604 61.693,346.698C61.693,345.792 61.357,345 60.685,344.323C60.014,343.646 59.142,343.213 58.072,343.024C56.994,342.834 56.121,342.957 55.453,343.394C54.785,343.831 54.451,344.507 54.451,345.421Z" style="fill:#2c2c2c;fill-rule:nonzero;"/>
    <path d="M62.537,334.807L53.607,333.232C53.35,333.187 53.133,333.061 52.957,332.854C52.781,332.647 52.693,332.415 52.693,332.157C52.693,331.899 52.781,331.698 52.957,331.553C53.133,331.408 53.35,331.359 53.607,331.404L53.9,331.456C53.049,330.532 52.623,329.52 52.623,328.418C52.623,327.645 52.846,327.041 53.291,326.608C53.736,326.175 54.353,325.961 55.142,325.968C55.424,325.963 55.67,326.065 55.881,326.274C56.092,326.483 56.197,326.728 56.197,327.009C56.197,327.22 56.129,327.401 55.992,327.553C55.855,327.705 55.685,327.778 55.482,327.774C54.795,327.762 54.451,328.084 54.451,328.74C54.451,329.428 54.764,330.069 55.389,330.664C56.014,331.258 56.908,331.767 58.072,332.191L62.537,332.979C62.787,333.023 63.002,333.152 63.182,333.368C63.361,333.583 63.451,333.82 63.451,334.077C63.451,334.32 63.361,334.513 63.182,334.657C63.002,334.801 62.787,334.851 62.537,334.807Z" style="fill:#2c2c2c;fill-rule:nonzero;"/>
    <path d="M62.537,312.501C62.787,312.545 63.002,312.673 63.182,312.885C63.361,313.096 63.451,313.327 63.451,313.577C63.451,313.827 63.361,314.026 63.182,314.174C63.002,314.322 62.787,314.374 62.537,314.33L62.174,314.265C63.072,315.486 63.521,316.652 63.521,317.761C63.521,318.839 63.215,319.664 62.601,320.235C61.988,320.807 61.197,321.007 60.228,320.837C57.892,320.425 56.725,318.234 56.725,314.266L56.725,313.305C55.998,313.177 55.437,313.287 55.043,313.635C54.648,313.983 54.451,314.548 54.451,315.33C54.451,316.134 54.682,316.816 55.142,317.373C55.307,317.574 55.389,317.811 55.389,318.085C55.389,318.343 55.303,318.544 55.131,318.69C54.959,318.835 54.748,318.886 54.498,318.842C54.264,318.8 54.064,318.675 53.9,318.467C53.502,318.022 53.189,317.494 52.963,316.884C52.736,316.273 52.623,315.648 52.623,315.007C52.623,313.617 52.984,312.624 53.707,312.028C54.43,311.433 55.482,311.257 56.865,311.501L62.537,312.501ZM59.443,313.784L58.553,313.627L58.553,314.588C58.553,316.111 58.678,317.202 58.928,317.859C59.178,318.516 59.611,318.9 60.228,319.008C60.666,319.086 61.019,318.978 61.289,318.686C61.558,318.393 61.693,317.978 61.693,317.439C61.693,316.892 61.494,316.292 61.096,315.64C60.697,314.988 60.146,314.369 59.443,313.784Z" style="fill:#2c2c2c;fill-rule:nonzero;"/>
    <path d="M63.451,290.575C63.451,290.817 63.361,291.015 63.182,291.166C63.002,291.318 62.787,291.372 62.537,291.328L53.584,289.749C53.342,289.707 53.133,289.578 52.957,289.364C52.781,289.149 52.693,288.921 52.693,288.678C52.693,288.28 52.869,288.038 53.221,287.951C52.822,287.404 52.623,286.857 52.623,286.311C52.623,285.904 52.719,285.542 52.91,285.224C53.101,284.907 53.357,284.674 53.678,284.528C52.975,283.794 52.623,283.072 52.623,282.361C52.623,281.603 52.896,281.04 53.443,280.672C53.99,280.304 54.709,280.198 55.6,280.355L62.537,281.578C62.787,281.622 63.002,281.752 63.182,281.967C63.361,282.182 63.451,282.411 63.451,282.653C63.451,282.903 63.361,283.102 63.182,283.25C63.002,283.398 62.787,283.45 62.537,283.406L55.6,282.183C55.24,282.12 54.959,282.129 54.756,282.21C54.553,282.291 54.451,282.434 54.451,282.637C54.451,283.027 54.65,283.371 55.049,283.668C55.447,283.965 56.103,284.264 57.017,284.566L62.537,285.539C62.787,285.583 63.002,285.711 63.182,285.922C63.361,286.134 63.451,286.364 63.451,286.614C63.451,286.864 63.361,287.063 63.182,287.211C63.002,287.359 62.787,287.411 62.537,287.367L55.6,286.144C54.834,286.009 54.451,286.156 54.451,286.586C54.451,286.969 54.644,287.308 55.031,287.602C55.418,287.897 56.08,288.205 57.017,288.527L62.537,289.5C62.787,289.544 63.002,289.672 63.182,289.883C63.361,290.095 63.451,290.325 63.451,290.575Z" style="fill:#2c2c2c;fill-rule:nonzero;"/>
    <path d="M62.537,267.206C62.787,267.25 63.002,267.378 63.182,267.59C63.361,267.801 63.451,268.032 63.451,268.282C63.451,268.532 63.361,268.731 63.182,268.879C63.002,269.027 62.787,269.079 62.537,269.035L62.174,268.97C63.072,270.191 63.521,271.357 63.521,272.466C63.521,273.544 63.215,274.369 62.601,274.94C61.988,275.512 61.197,275.712 60.228,275.542C57.892,275.13 56.725,272.939 56.725,268.971L56.725,268.01C55.998,267.881 55.437,267.992 55.043,268.34C54.648,268.688 54.451,269.253 54.451,270.035C54.451,270.839 54.682,271.52 55.142,272.078C55.307,272.279 55.389,272.516 55.389,272.79C55.389,273.047 55.303,273.249 55.131,273.395C54.959,273.54 54.748,273.591 54.498,273.547C54.264,273.505 54.064,273.38 53.9,273.172C53.502,272.727 53.189,272.199 52.963,271.589C52.736,270.978 52.623,270.353 52.623,269.712C52.623,268.322 52.984,267.329 53.707,266.733C54.43,266.138 55.482,265.962 56.865,266.206L62.537,267.206ZM59.443,268.489L58.553,268.332L58.553,269.293C58.553,270.816 58.678,271.907 58.928,272.564C59.178,273.221 59.611,273.605 60.228,273.713C60.666,273.791 61.019,273.683 61.289,273.391C61.558,273.098 61.693,272.683 61.693,272.144C61.693,271.597 61.494,270.997 61.096,270.345C60.697,269.693 60.146,269.074 59.443,268.489Z" style="fill:#2c2c2c;fill-rule:nonzero;"/>
    <path d="M56.725,252.431C55.209,252.999 54.451,253.897 54.451,255.124C54.451,255.96 54.773,256.684 55.418,257.298C56.062,257.912 56.939,258.316 58.049,258.512C59.166,258.709 60.053,258.613 60.709,258.225C61.365,257.837 61.693,257.229 61.693,256.401C61.693,255.791 61.5,255.204 61.113,254.64C60.726,254.076 60.111,253.489 59.267,252.879L56.725,252.431ZM62.537,251.628C62.787,251.672 63.002,251.799 63.182,252.011C63.361,252.222 63.451,252.453 63.451,252.703C63.451,252.953 63.361,253.152 63.182,253.3C63.002,253.448 62.787,253.5 62.537,253.456L62.221,253.4C63.088,254.451 63.521,255.559 63.521,256.723C63.521,258.09 63.027,259.109 62.039,259.778C61.051,260.448 59.721,260.635 58.049,260.34C56.377,260.045 55.055,259.396 54.082,258.393C53.109,257.389 52.623,256.192 52.623,254.801C52.623,253.606 53.064,252.653 53.947,251.941L48.873,251.046C48.623,251.002 48.408,250.875 48.228,250.663C48.049,250.452 47.959,250.221 47.959,249.971C47.959,249.721 48.049,249.522 48.228,249.374C48.408,249.226 48.623,249.174 48.873,249.218L62.537,251.628Z" style="fill:#2c2c2c;fill-rule:nonzero;"/>
    <path d="M56.748,242.762L56.748,237.454C56.014,237.426 55.447,237.592 55.049,237.951C54.65,238.31 54.451,238.834 54.451,239.521C54.451,240.232 54.652,240.873 55.055,241.444C55.457,242.015 56.021,242.455 56.748,242.762ZM61.81,237.456C62.076,237.503 62.291,237.63 62.455,237.839C62.838,238.281 63.111,238.755 63.275,239.261C63.439,239.766 63.521,240.386 63.521,241.121C63.521,242.59 63.019,243.669 62.016,244.359C61.012,245.049 59.682,245.248 58.025,244.956C56.392,244.668 55.084,243.998 54.1,242.946C53.115,241.893 52.623,240.644 52.623,239.199C52.623,237.863 53.082,236.878 54,236.243C54.918,235.608 56.139,235.424 57.662,235.693C57.912,235.737 58.127,235.867 58.307,236.082C58.486,236.297 58.576,236.534 58.576,236.792L58.576,243.178C59.576,243.261 60.346,243.096 60.885,242.683C61.424,242.27 61.693,241.642 61.693,240.798C61.693,239.986 61.517,239.353 61.166,238.901C60.986,238.65 60.896,238.42 60.896,238.209C60.896,237.959 60.988,237.76 61.172,237.613C61.355,237.465 61.568,237.413 61.81,237.456Z" style="fill:#2c2c2c;fill-rule:nonzero;"/>
    <path d="M54.732,206.831L54.732,209.831L60.392,210.829C60.791,210.9 61.107,210.842 61.342,210.657C61.576,210.472 61.693,210.18 61.693,209.781C61.693,209.399 61.631,209.024 61.506,208.659C61.389,208.286 61.33,208.065 61.33,207.995C61.33,207.745 61.418,207.545 61.594,207.397C61.769,207.248 61.986,207.196 62.244,207.242C62.603,207.305 62.877,207.521 63.064,207.89C63.369,208.632 63.521,209.369 63.521,210.104C63.521,211.041 63.232,211.742 62.654,212.207C62.076,212.671 61.322,212.821 60.392,212.658L54.732,211.659L54.732,213.242C54.732,213.492 54.642,213.691 54.463,213.839C54.283,213.987 54.068,214.038 53.818,213.994C53.568,213.95 53.353,213.823 53.174,213.611C52.994,213.4 52.904,213.169 52.904,212.919L52.904,211.337L50.748,210.957C50.498,210.913 50.283,210.785 50.103,210.574C49.924,210.362 49.834,210.132 49.834,209.882C49.834,209.632 49.924,209.433 50.103,209.285C50.283,209.137 50.498,209.085 50.748,209.129L52.904,209.509L52.904,206.509C52.904,206.259 52.994,206.06 53.174,205.912C53.353,205.764 53.568,205.712 53.818,205.756C54.068,205.8 54.283,205.928 54.463,206.139C54.642,206.351 54.732,206.581 54.732,206.831Z" style="fill:#2c2c2c;fill-rule:nonzero;"/>
    <path d="M62.537,198.629C62.787,198.673 63.002,198.801 63.182,199.012C63.361,199.223 63.451,199.454 63.451,199.704C63.451,199.954 63.361,200.153 63.182,200.301C63.002,200.449 62.787,200.501 62.537,200.457L48.873,198.048C48.623,198.003 48.408,197.876 48.228,197.664C48.049,197.453 47.959,197.222 47.959,196.972C47.959,196.722 48.049,196.523 48.228,196.375C48.408,196.227 48.623,196.175 48.873,196.219L54.041,197.131C53.096,195.972 52.623,194.744 52.623,193.447C52.623,192.22 53.021,191.332 53.818,190.781C54.615,190.23 55.713,190.078 57.111,190.324L62.537,191.281C62.787,191.325 63.002,191.453 63.182,191.664C63.361,191.876 63.451,192.106 63.451,192.356C63.451,192.606 63.361,192.805 63.182,192.953C63.002,193.101 62.787,193.153 62.537,193.109L57.111,192.152C56.283,192.006 55.633,192.075 55.16,192.359C54.687,192.643 54.451,193.113 54.451,193.769C54.451,194.465 54.668,195.126 55.101,195.753C55.535,196.38 56.228,197.024 57.182,197.684L62.537,198.629Z" style="fill:#2c2c2c;fill-rule:nonzero;"/>
    <path d="M62.537,178.948C62.787,178.992 63.002,179.12 63.182,179.332C63.361,179.543 63.451,179.774 63.451,180.024C63.451,180.274 63.361,180.473 63.182,180.621C63.002,180.769 62.787,180.821 62.537,180.776L54.732,179.4L54.732,181.99C54.732,182.232 54.642,182.427 54.463,182.575C54.283,182.723 54.068,182.775 53.818,182.731C53.568,182.687 53.353,182.561 53.174,182.354C52.994,182.147 52.904,181.918 52.904,181.668L52.904,178.187C52.904,177.93 52.994,177.725 53.174,177.573C53.353,177.421 53.568,177.367 53.818,177.411L62.537,178.948ZM47.959,177.175C47.959,176.925 48.047,176.729 48.223,176.588C48.398,176.448 48.615,176.4 48.873,176.445L49.787,176.606C50.029,176.649 50.24,176.774 50.42,176.982C50.6,177.189 50.689,177.414 50.689,177.656L50.689,178.57C50.689,178.805 50.598,178.997 50.414,179.149C50.23,179.3 50.021,179.355 49.787,179.313L48.873,179.152C48.631,179.11 48.418,178.982 48.234,178.77C48.051,178.558 47.959,178.331 47.959,178.089L47.959,177.175Z" style="fill:#2c2c2c;fill-rule:nonzero;"/>
    <path d="M63.521,166.039C63.521,166.992 63.328,167.796 62.941,168.451C62.555,169.105 62.076,169.464 61.506,169.528C61.264,169.547 61.027,169.437 60.797,169.197C60.566,168.958 60.451,168.709 60.451,168.451C60.451,168.092 60.576,167.84 60.826,167.697C61.404,167.4 61.693,166.74 61.693,165.717C61.693,164.936 61.574,164.288 61.336,163.773C61.098,163.258 60.783,162.967 60.392,162.898C60.01,162.83 59.703,162.975 59.473,163.333C59.242,163.691 59.029,164.333 58.834,165.26C58.342,167.673 57.314,168.742 55.752,168.466C54.775,168.294 54.01,167.803 53.455,166.995C52.9,166.186 52.623,165.164 52.623,163.93C52.623,162.86 52.832,162.02 53.25,161.41C53.668,160.8 54.221,160.501 54.908,160.513C55.15,160.516 55.371,160.629 55.57,160.852C55.769,161.075 55.869,161.323 55.869,161.596C55.869,162.034 55.635,162.289 55.166,162.363C54.689,162.435 54.451,163.057 54.451,164.229C54.451,165.682 54.885,166.485 55.752,166.638C56.088,166.697 56.363,166.56 56.578,166.227C56.793,165.894 56.994,165.275 57.182,164.371C57.478,163.017 57.867,162.089 58.348,161.588C58.828,161.087 59.51,160.914 60.392,161.07C61.33,161.235 62.086,161.769 62.66,162.671C63.234,163.573 63.521,164.695 63.521,166.039Z" style="fill:#2c2c2c;fill-rule:nonzero;"/>
</svg>
